<?xml version="1.0" encoding="utf-8"?>
<!-- Generator: Adobe Illustrator 15.0.0, SVG Export Plug-In . SVG Version: 6.00 Build 0)  -->
<!DOCTYPE svg PUBLIC "-//W3C//DTD SVG 1.1//EN" "http://www.w3.org/Graphics/SVG/1.1/DTD/svg11.dtd">
<svg version="1.1" id="Ebene_1" xmlns="http://www.w3.org/2000/svg" xmlns:xlink="http://www.w3.org/1999/xlink" x="0px" y="0px"
	 width="28.347px" height="26.697px" viewBox="0 0.822 28.347 26.697" enable-background="new 0 0.822 28.347 26.697"
	 xml:space="preserve">
<g>
	<rect x="0.426" y="25.408" fill="#6496B9" width="27.495" height="1.703"/>
	<path fill="#1E6E5A" d="M6.576,19.678c0.125-0.125,0.188-0.272,0.188-0.441c0-0.18-0.063-0.332-0.188-0.457
		s-0.277-0.188-0.457-0.188H1.692c-0.465,0-0.89-0.113-1.267-0.336v1.611h5.693C6.299,19.867,6.451,19.803,6.576,19.678z"/>
	<g>
		<path fill="#1E6E5A" d="M18.463,21.734c0,0-1.491-2.553-1.491-2.563v-3.207c0-0.169-0.068-0.317-0.202-0.442
			c-0.135-0.125-0.278-0.188-0.429-0.188h-4.482c-0.108,0-0.243,0.067-0.403,0.201c-0.151,0.125-0.229,0.268-0.229,0.429v3.207
			c0,0.17,0.066,0.318,0.202,0.443c0.134,0.125,0.276,0.188,0.43,0.188h3.804l1.848,3.197h10.411v-1.64
			c-0.396,0.248-0.842,0.374-1.339,0.374L18.463,21.734L18.463,21.734z"/>
		<path fill="#1E6E5A" d="M21.698,15.521c-0.116,0.116-0.175,0.264-0.175,0.442s0.063,0.332,0.188,0.457s0.273,0.188,0.443,0.188
			h4.428c0.497,0,0.943,0.129,1.339,0.381v-1.656h-5.767C21.976,15.334,21.823,15.396,21.698,15.521z"/>
		<path fill="#1E6E5A" d="M0.426,1.236v12.58c0.377-0.223,0.802-0.337,1.267-0.337h6.668v1.92H1.693
			c-0.179,0-0.331,0.062-0.456,0.188c-0.117,0.116-0.175,0.264-0.175,0.442s0.063,0.332,0.188,0.457s0.273,0.188,0.443,0.188H6.12
			c0.708,0,1.312,0.254,1.813,0.765c0.5,0.51,0.752,1.113,0.752,1.813c0,0.697-0.252,1.296-0.752,1.797
			C7.433,21.549,6.828,21.8,6.12,21.8H0.427v1.201h15.064l-0.738-1.279h-2.895c-0.699,0-1.297-0.25-1.798-0.751
			c-0.5-0.501-0.752-1.1-0.752-1.799v-3.207c0-0.697,0.251-1.296,0.752-1.798c0.501-0.5,1.1-0.751,1.798-0.751h4.482
			c0.696,0,1.297,0.25,1.798,0.751c0.5,0.501,0.751,1.101,0.751,1.798v3.838h7.691c0.181,0,0.331-0.063,0.457-0.188
			c0.125-0.125,0.188-0.273,0.188-0.443c0-0.178-0.063-0.331-0.188-0.456s-0.276-0.188-0.457-0.188h-4.428
			c-0.698,0-1.297-0.25-1.798-0.752c-0.501-0.5-0.751-1.104-0.751-1.813c0-0.697,0.25-1.296,0.751-1.798
			c0.501-0.5,1.1-0.751,1.798-0.751h5.767V1.235L0.426,1.236L0.426,1.236z"/>
	</g>
</g>
</svg>
